<?xml version="1.0" standalone="no"?>
<!DOCTYPE svg PUBLIC "-//W3C//DTD SVG 20010904//EN"
 "http://www.w3.org/TR/2001/REC-SVG-20010904/DTD/svg10.dtd">
<svg version="1.0" xmlns="http://www.w3.org/2000/svg"
 width="600.000000pt" height="600.000000pt" viewBox="0 0 600.000000 600.000000"
 preserveAspectRatio="xMidYMid meet">
<metadata>
Created by potrace 1.11, written by Peter Selinger 2001-2013
</metadata>
<g transform="translate(0.000000,600.000000) scale(0.100000,-0.100000)"
fill="#000000" stroke="none">
<path d="M2455 5994 c-221 -17 -424 -53 -589 -104 -638 -196 -1151 -637 -1474
-1267 -191 -372 -305 -786 -343 -1240 -15 -182 -7 -527 15 -648 50 -271 138
-510 274 -747 27 -47 64 -130 82 -184 299 -900 971 -1538 1821 -1728 259 -58
609 -76 819 -43 204 33 470 114 720 219 58 25 146 52 195 62 754 147 1196 460
1475 1044 80 168 83 174 169 299 169 247 283 543 337 871 22 133 30 584 15
794 -81 1108 -445 1825 -1091 2148 -313 156 -777 268 -1225 296 -61 4 -126 13
-145 21 -181 76 -462 159 -640 188 -96 15 -324 26 -415 19z m-1035 -2596 c47
-14 97 -52 116 -90 l16 -30 30 36 c63 77 162 111 275 95 109 -15 163 -54 205
-144 22 -48 23 -61 26 -367 l3 -318 -110 0 -111 0 0 280 c0 306 -4 333 -56
366 -38 25 -126 23 -162 -3 -15 -11 -36 -37 -47 -59 -18 -36 -20 -63 -23 -311
l-3 -273 -105 0 -104 0 0 268 c0 281 -6 329 -44 367 -60 60 -181 31 -223 -55
-22 -43 -23 -54 -23 -312 l0 -268 -110 0 -110 0 0 405 0 405 100 0 100 0 0
-50 c0 -27 4 -50 8 -50 4 0 24 16 43 36 79 83 189 108 309 72z m1260 11 c100
-16 172 -53 234 -120 73 -78 98 -144 104 -273 13 -275 -141 -446 -403 -449
-189 -1 -325 85 -387 246 -25 65 -35 212 -19 286 40 187 182 303 391 320 8 0
44 -4 80 -10z m1057 -24 c64 -29 107 -85 124 -163 9 -38 13 -154 13 -347 l1
-290 -107 -3 -108 -3 0 269 c0 280 -4 317 -43 360 -50 54 -160 51 -218 -7 -52
-51 -59 -99 -59 -381 l0 -240 -105 0 -105 0 0 405 0 405 100 0 100 0 0 -56 0
-55 48 49 c46 47 99 73 172 85 48 8 135 -5 187 -28z m803 8 c186 -61 284 -240
258 -475 -10 -94 -61 -202 -121 -254 -158 -137 -445 -130 -581 16 -195 209
-137 584 109 696 95 44 232 50 335 17z m620 -693 l0 -120 -120 0 -120 0 0 120
0 120 120 0 120 0 0 -120z"/>
<path d="M2540 3243 c-40 -15 -75 -51 -99 -102 -21 -47 -26 -70 -25 -146 0
-114 16 -169 63 -216 111 -111 286 -50 320 112 32 150 -13 300 -102 343 -34
15 -125 21 -157 9z"/>
<path d="M4315 3241 c-11 -5 -32 -20 -47 -33 -78 -74 -99 -250 -43 -375 54
-120 213 -148 299 -52 107 118 81 390 -45 454 -30 16 -131 19 -164 6z"/>
</g>
</svg>
