<svg width="14" height="14" viewBox="0 0 14 14" fill="none" xmlns="http://www.w3.org/2000/svg">
<path fill-rule="evenodd" clip-rule="evenodd" d="M2.79064 3.94915L2.47044 4.38943H5.83407L5.83846 4.39168C5.85076 4.39839 5.86603 4.40991 5.87987 4.42375C5.8937 4.43758 5.90523 4.45285 5.91194 4.46515L5.91418 4.46955V5.84487C5.91418 5.85474 5.91206 5.86309 5.90735 5.8725C5.90225 5.88271 5.8938 5.89451 5.88161 5.90699C5.88161 5.90699 5.87907 5.90827 5.87648 5.90921C5.86914 5.91188 5.85809 5.91418 5.84487 5.91418H0.0693068C0.0358118 5.91418 0.0163274 5.91014 0.00693071 5.90725C0.00403845 5.89785 0 5.87837 0 5.84487V0.0693068C0 0.0560933 0.00230109 0.0450394 0.00496749 0.0377067C0.00591016 0.0351144 0.00719388 0.0325754 0.00719388 0.0325754C0.0196721 0.0203866 0.0314749 0.0119312 0.041678 0.00682964C0.0510933 0.00212197 0.0594461 0 0.0693068 0H1.44464L1.44903 0.00224664C1.46133 0.00895325 1.4766 0.0204781 1.49044 0.0343134C1.50427 0.0481487 1.5158 0.0634216 1.5225 0.0757171L1.52475 0.0801149V3.05358L2.00962 2.50546C2.64589 1.7862 3.42102 1.232 4.30996 0.843092C5.20178 0.45292 6.17481 0.231023 7.17326 0.231023C8.42042 0.231023 9.55686 0.562837 10.6152 1.17556C11.6679 1.78502 12.4716 2.61528 13.0843 3.67355C13.6943 4.72713 14 5.89181 14 7.14438C14 8.39154 13.6682 9.52799 13.0554 10.5863C12.4444 11.6418 11.6129 12.4733 10.5575 13.0843C9.5029 13.6948 8.36692 14 7.1155 14C6.22057 14 5.39292 13.86 4.6258 13.5312L4.61481 13.5271C3.81247 13.2227 3.11998 12.78 2.50826 12.2239L2.49287 12.2099L2.48565 12.2051C2.4845 12.1974 2.48349 12.1858 2.48349 12.1691C2.48349 12.1505 2.48828 12.1227 2.51103 12.0831L3.46899 11.1252C3.46899 11.1252 3.47153 11.1239 3.47417 11.1229C3.4815 11.1203 3.49256 11.118 3.50577 11.118C3.52503 11.118 3.55403 11.1231 3.59562 11.1478C4.05285 11.5697 4.59607 11.8989 5.19324 12.1377C5.81174 12.3851 6.45498 12.4752 7.1155 12.4752C8.08282 12.4752 8.97033 12.2628 9.79808 11.7723C10.6178 11.2865 11.2577 10.6467 11.7434 9.82696C12.2318 9.00291 12.4752 8.08747 12.4752 7.1155C12.4752 6.14187 12.2309 5.25557 11.7434 4.43292C11.2577 3.61319 10.6178 2.97334 9.79808 2.48757C8.97543 2.00008 8.08913 1.75577 7.1155 1.75577C6.23316 1.75577 5.40875 1.96883 4.67531 2.36567C3.92218 2.75763 3.28119 3.27464 2.79064 3.94915Z" fill="#282828"/>
</svg>
